<svg width="200" height="86" viewBox="0 0 200 86" fill="none" xmlns="http://www.w3.org/2000/svg">
<path d="M84.3517 8.41489L94.1927 0V22.4397L84.3517 32.2571V8.41489Z" fill="white"/>
<path d="M97.0044 11.2199L105.44 2.80496V23.8422L97.0044 32.2571V11.2199Z" fill="#9FA0A3"/>
<path d="M108.251 12.6223L115.281 5.60993V25.2447L108.251 32.2571V12.6223Z" fill="#9FA0A3"/>
<path d="M38.5768 38.9553L38.5993 38.7758L39.814 37.6763L42.5357 23.831L38.8242 24.0105L36.8898 25.312H36.7323L37.5421 22.7763H49.6663L49.5088 25.312H49.3288L47.9792 24.0105L44.2902 23.831L41.5685 37.6763L42.3783 38.7758L42.3558 38.9553H38.5768Z" fill="white"/>
<path d="M47.8235 38.9553L47.846 38.7758L48.8357 37.766L51.49 24.1227L50.9052 23.0231L50.9502 22.8661L53.4245 22.4397L52.0074 29.6653C52.9071 28.117 54.4142 27.0847 56.2137 27.0847C58.3956 27.0847 59.9702 28.6555 59.4528 31.2585L58.1931 37.7885L58.8005 38.7758L58.7555 38.9553H55.5839L55.6064 38.7758L56.5736 37.7885L57.8332 31.3258C58.2156 29.396 57.2034 28.3413 55.7863 28.3413C54.0093 28.3413 52.3898 29.7102 51.67 31.5053L50.4328 37.766L51.0401 38.7758L50.9951 38.9553H47.8235Z" fill="white"/>
<path d="M62.9778 33.9962C62.9778 36.3299 64.3499 37.8782 66.4194 37.8782C68.2639 37.8782 69.6135 36.9806 70.5807 35.0059L71.503 35.2977C70.5582 37.6987 68.8262 39.1797 66.2169 39.1797C63.1353 39.1797 61.2458 36.8684 61.2458 34.0186C61.2458 30.2936 63.7201 27.0847 67.6565 27.0847C71.278 27.0847 72.5602 29.8672 71.8404 32.8293H63.0678C63.0003 33.2108 62.9778 33.6147 62.9778 33.9962ZM63.2702 31.8868H70.3108C70.5132 30.2712 69.9059 28.0496 67.6565 28.0496C65.4296 28.0496 63.9001 29.7775 63.2702 31.8868Z" fill="white"/>
<path d="M122.231 82.937V82.8248L122.864 82.1376V73.6245L122.231 72.9233V72.8251H124.593V72.9233L123.96 73.6245V82.2778L127.925 82.1656L128.937 81.3522H129.036L128.853 82.937H122.231Z" fill="white"/>
<path d="M131.189 82.1937L131.681 82.8248V82.937H129.699V82.8248L130.191 82.1937V76.6398L129.699 75.9526V75.8544L131.189 75.588V82.1937ZM130.655 74.3678C130.247 74.3678 129.938 74.0452 129.938 73.6385C129.938 73.2318 130.247 72.9092 130.655 72.9092C131.091 72.9092 131.414 73.2318 131.414 73.6385C131.414 74.0452 131.091 74.3678 130.655 74.3678Z" fill="white"/>
<path d="M132.816 82.937V82.8248L133.294 82.1937V76.6398L132.802 75.9526V75.8544L134.292 75.588V77.1588C134.714 76.177 135.571 75.5179 136.626 75.5179C137.764 75.5179 138.566 76.1209 138.791 77.2289C139.311 76.1069 140.196 75.5179 141.195 75.5179C142.6 75.5179 143.486 76.4295 143.486 77.9582V82.1937L143.95 82.8248V82.937H142.024V82.8248L142.474 82.1937V78.0984C142.474 76.7661 141.799 76.3032 140.984 76.3032C139.971 76.3032 139.1 77.0886 138.889 78.449V82.1937L139.339 82.8248V82.937H137.427V82.8248L137.891 82.1937V78.0984C137.891 76.7661 137.202 76.3032 136.401 76.3032C135.388 76.3032 134.517 77.1167 134.292 78.449V82.1937L134.756 82.8248V82.937H132.816Z" fill="white"/>
<path d="M146.524 82.1937L147.016 82.8248V82.937H145.034V82.8248L145.526 82.1937V76.6398L145.034 75.9526V75.8544L146.524 75.588V82.1937ZM145.99 74.3678C145.583 74.3678 145.273 74.0452 145.273 73.6385C145.273 73.2318 145.583 72.9092 145.99 72.9092C146.426 72.9092 146.749 73.2318 146.749 73.6385C146.749 74.0452 146.426 74.3678 145.99 74.3678Z" fill="white"/>
<path d="M150.724 83.0772C149.683 83.0772 148.938 82.5022 148.938 81.1979V76.3032H147.575V75.7843C148.798 75.7002 149.248 75.4197 149.374 73.9471H149.936V75.6581L151.877 75.574L151.919 76.3032H149.936V81.24C149.936 82.0674 150.4 82.376 150.963 82.376C151.244 82.376 151.553 82.3339 151.792 82.1516L151.848 82.6705C151.638 82.8809 151.244 83.0772 150.724 83.0772Z" fill="white"/>
<path d="M153.294 79.2064C153.294 81.1138 154.433 82.2638 155.867 82.2638C157.02 82.2638 157.807 81.6607 158.215 80.4826L158.791 80.665C158.425 82.1235 157.287 83.0772 155.684 83.0772C153.617 83.0772 152.212 81.4504 152.212 79.2905C152.212 77.1447 153.533 75.5179 155.6 75.5179C157.976 75.5179 158.833 77.3691 158.721 79.1082H153.294V79.2064ZM153.35 78.5192H157.638C157.582 77.2008 156.837 76.1209 155.6 76.1209C154.348 76.1209 153.547 77.1728 153.35 78.5192Z" fill="white"/>
<path d="M162.942 83.0772C160.988 83.0772 159.666 81.4924 159.666 79.2905C159.666 77.1027 161.143 75.5179 163.139 75.5179C164.025 75.5179 164.854 75.8965 165.388 76.6398V73.6666L164.896 72.9794V72.8812L166.387 72.6147V82.1937L166.879 82.8248V82.937H165.388V81.4503C164.953 82.4882 163.954 83.0772 162.942 83.0772ZM163.111 82.3199C164.264 82.3199 165.234 81.4223 165.388 80.0619V78.1265C165.121 76.8923 164.306 76.1349 163.195 76.1349C161.747 76.1349 160.763 77.4954 160.763 79.2905C160.763 81.0156 161.677 82.3199 163.111 82.3199Z" fill="white"/>
<path d="M31.3113 85.6634V85.3941L32.8296 83.7448V73.6133H19.5358V83.7448L21.0541 85.3941V85.6634H15.3857V85.3941L16.904 83.7448V63.3135L15.3857 61.6305V61.3949H21.0541V61.6305L19.5358 63.3135V71.8966H32.8296V63.3135L31.3113 61.6305V61.3949H36.9797V61.6305L35.4614 63.3135V83.7448L36.9797 85.3941V85.6634H31.3113Z" fill="white"/>
<path d="M47.6341 86C42.7417 86 39.199 82.1628 39.199 76.9119C39.199 71.6947 42.7417 67.8575 47.6341 67.8575C52.5603 67.8575 56.103 71.6947 56.103 76.9119C56.103 82.1628 52.5603 86 47.6341 86ZM47.6341 84.4853C51.0082 84.4853 53.505 81.3213 53.505 76.9119C53.505 72.5025 51.0082 69.3722 47.6341 69.3722C44.2938 69.3722 41.797 72.5025 41.797 76.9119C41.797 81.355 44.2938 84.4853 47.6341 84.4853Z" fill="white"/>
<path d="M58.5814 85.6634V85.3941L59.7286 83.8794V70.5503L58.5477 68.9009V68.6653L62.1242 68.0258V71.7957C63.1364 69.4395 65.1946 67.8575 67.7251 67.8575C70.4581 67.8575 72.3813 69.3049 72.9212 71.964C74.1696 69.2712 76.2952 67.8575 78.6908 67.8575C82.0649 67.8575 84.1906 70.0454 84.1906 73.7143V83.8794L85.304 85.3941V85.6634H80.6815V85.3941L81.7612 83.8794V74.0509C81.7612 70.8532 80.1417 69.7424 78.1847 69.7424C75.7554 69.7424 73.6635 71.6274 73.1574 74.8923V83.8794L74.2371 85.3941V85.6634H69.6483V85.3941L70.7618 83.8794V74.0509C70.7618 70.8532 69.1085 69.7424 67.1853 69.7424C64.7559 69.7424 62.664 71.6947 62.1242 74.8923V83.8794L63.2376 85.3941V85.6634H58.5814Z" fill="white"/>
<path d="M90.1674 76.71C90.1674 81.2877 92.9004 84.0477 96.3419 84.0477C99.1087 84.0477 100.998 82.6004 101.977 79.773L103.36 80.2106C102.483 83.7112 99.7498 86 95.9033 86C90.9434 86 87.5694 82.0955 87.5694 76.9119C87.5694 71.762 90.741 67.8575 95.7009 67.8575C101.403 67.8575 103.461 72.3006 103.191 76.4743H90.1674V76.71ZM90.3024 75.0606H100.593C100.458 71.8966 98.6701 69.3049 95.7009 69.3049C92.698 69.3049 90.7747 71.8293 90.3024 75.0606Z" fill="white"/>
<path d="M112.108 86C108.295 86 105.967 84.0814 105.157 81.7925L106.845 79.874L107.114 79.9076C107.621 82.6004 109.443 84.519 112.142 84.519C114.369 84.519 115.988 83.1389 115.988 81.153C115.988 79.47 114.909 78.4266 112.985 77.888L109.949 77.0466C107.621 76.407 105.799 75.2289 105.799 72.5362C105.799 69.8098 108.295 67.8575 111.703 67.8575C114.639 67.8575 116.764 69.2039 117.743 71.2908L116.224 73.0411H115.955C115.482 70.7186 113.761 69.3049 111.669 69.3049C109.645 69.3049 108.16 70.5503 108.16 72.1659C108.16 73.5796 109.105 74.3875 110.826 74.8587L113.829 75.6665C116.461 76.407 118.418 77.7197 118.418 80.7828C118.418 83.8121 115.786 86 112.108 86Z" fill="white"/>
<path d="M0 58.5898V58.3205L1.51833 56.7385V36.1725L0 34.5569V34.3213H9.68357C15.0483 34.3213 18.1187 36.6774 18.1187 40.8512C18.1187 44.2508 15.8919 46.4387 12.2816 47.0109C14.2048 47.4822 15.7906 48.5929 16.7691 51.6896L18.2874 56.7385L20.2781 58.3205V58.5898H15.9593L14.2048 52.3965C13.0914 48.5929 11.3706 47.4485 7.86158 47.4485H4.1501V56.7385L5.76965 58.3205V58.5898H0ZM9.41365 45.7655C13.0239 45.7655 15.352 43.9816 15.352 40.8512C15.352 37.6872 13.0239 36.0042 9.41365 36.0042H4.1501V45.7655H9.41365Z" fill="white"/>
<path d="M29.3818 58.9264C24.4894 58.9264 20.9466 55.0892 20.9466 49.8383C20.9466 44.6211 24.4894 40.7839 29.3818 40.7839C34.3079 40.7839 37.8507 44.6211 37.8507 49.8383C37.8507 55.0892 34.3079 58.9264 29.3818 58.9264ZM29.3818 57.4117C32.7559 57.4117 35.2527 54.2477 35.2527 49.8383C35.2527 45.4289 32.7559 42.2986 29.3818 42.2986C26.0415 42.2986 23.5447 45.4289 23.5447 49.8383C23.5447 54.2814 26.0415 57.4117 29.3818 57.4117Z" fill="white"/>
<path d="M40.9577 65.2207C39.9793 65.2207 39.0008 64.9515 38.4609 64.5476L39.1695 62.1577C39.7431 62.6626 40.5866 62.9656 41.5651 62.9656C42.9484 62.9656 44.2306 62.0568 45.0741 59.8689L45.614 58.4888L39.6419 42.9045L38.1235 41.3561V41.1205H43.0497V41.3561L42.2062 42.9045L46.8286 55.4931L51.3499 42.9045L50.5064 41.3561L50.5401 41.1205H54.8252V41.3561L53.2393 42.9045L46.525 60.5084C45.1753 63.9417 43.2859 65.2207 40.9577 65.2207Z" fill="white"/>
<path d="M60.7448 58.9264C57.472 58.9264 55.2788 57.1088 55.2788 54.2814C55.2788 51.3194 57.4382 49.6364 61.2509 48.8959L66.7169 47.8188V46.5734C66.7169 43.7123 64.9961 42.2313 62.6005 42.2313C60.07 42.2313 58.1805 43.8133 58.113 46.708L55.6837 46.0685C56.0548 43.0728 58.6529 40.7839 62.6343 40.7839C66.5819 40.7839 69.1125 42.9718 69.1125 46.809V56.7722L70.2934 58.3205V58.5898H66.6832V55.0892C65.536 57.479 63.444 58.9264 60.7448 58.9264ZM57.8431 54.0794C57.8431 55.9644 59.1927 57.1761 61.3521 57.1761C64.2201 57.1761 66.0421 55.1565 66.6832 52.6321V49.1988L61.9932 50.1413C59.2939 50.7471 57.8431 51.9925 57.8431 54.0794Z" fill="white"/>
<path d="M76.227 56.8059L77.4079 58.3205V58.5898H72.6168V58.3205L73.7977 56.8059V36.3408L72.6168 34.6915V34.4559L76.227 33.8164V56.8059Z" fill="white"/>
<path d="M83.0314 58.3374V58.0681L84.5497 56.4188V35.9874L83.0314 34.3044V34.0688H91.8377C98.7208 34.0688 103.748 39.1514 103.748 46.1863C103.748 53.2548 98.7208 58.3374 91.8377 58.3374H83.0314ZM91.7365 56.6544C97.0675 56.6544 100.981 52.043 100.981 46.1863C100.981 40.3632 97.1012 35.7518 91.7365 35.7518H87.1815V56.6544H91.7365Z" fill="white"/>
<path d="M107.514 64.9683C106.536 64.9683 105.557 64.699 105.017 64.2951L105.726 61.9053C106.3 62.4102 107.143 62.7131 108.122 62.7131C109.505 62.7131 110.787 61.8043 111.631 59.6164L112.17 58.2364L106.198 42.652L104.68 41.1037V40.8681H109.606V41.1037L108.763 42.652L113.385 55.2407L117.906 42.652L117.063 41.1037L117.097 40.8681H121.382V41.1037L119.796 42.652L113.081 60.256C111.732 63.6892 109.842 64.9683 107.514 64.9683Z" fill="white"/>
<path d="M122.8 58.3374V58.0681L123.98 56.5534V43.2242L122.8 41.5749V41.3393L126.376 40.6998V44.436C127.422 42.0798 129.548 40.5315 132.146 40.5315C135.587 40.5315 138.017 42.652 138.017 46.4555V56.5534L139.197 58.0681V58.3374H134.44V58.0681L135.621 56.5534V46.7585C135.621 43.8638 133.968 42.4164 131.64 42.4164C129.143 42.4164 127.017 44.335 126.376 47.4317V56.5534L127.557 58.0681V58.3374H122.8Z" fill="white"/>
<path d="M146.808 58.674C143.535 58.674 141.342 56.8563 141.342 54.0289C141.342 51.0669 143.501 49.3839 147.314 48.6434L152.78 47.5663V46.3209C152.78 43.4598 151.059 41.9788 148.663 41.9788C146.133 41.9788 144.243 43.5608 144.176 46.4555L141.746 45.816C142.118 42.8203 144.716 40.5315 148.697 40.5315C152.645 40.5315 155.175 42.7193 155.175 46.5565V56.5197L156.356 58.0681V58.3374H152.746V54.8368C151.599 57.2266 149.507 58.674 146.808 58.674ZM143.906 53.827C143.906 55.7119 145.256 56.9237 147.415 56.9237C150.283 56.9237 152.105 54.9041 152.746 52.3796V48.9464L148.056 49.8888C145.357 50.4947 143.906 51.7401 143.906 53.827Z" fill="white"/>
<path d="M165.124 58.674C161.311 58.674 158.983 56.7554 158.173 54.4665L159.86 52.5479L160.13 52.5816C160.637 55.2743 162.458 57.1929 165.158 57.1929C167.385 57.1929 169.004 55.8129 169.004 53.827C169.004 52.144 167.924 51.1006 166.001 50.562L162.965 49.7205C160.637 49.081 158.815 47.9029 158.815 45.2101C158.815 42.4837 161.311 40.5315 164.719 40.5315C167.655 40.5315 169.78 41.8778 170.759 43.9647L169.24 45.715H168.97C168.498 43.3925 166.777 41.9788 164.685 41.9788C162.661 41.9788 161.176 43.2242 161.176 44.8399C161.176 46.2536 162.121 47.0614 163.842 47.5326L166.845 48.3405C169.477 49.081 171.434 50.3937 171.434 53.4567C171.434 56.4861 168.802 58.674 165.124 58.674Z" fill="white"/>
<path d="M179.849 58.674C177.353 58.674 175.564 57.2939 175.564 54.1636V42.4164H172.292V41.171C175.227 40.969 176.307 40.2958 176.61 36.7616H177.96V40.8681L182.616 40.6661L182.717 42.4164H177.96V54.2646C177.96 56.2505 179.073 56.991 180.423 56.991C181.098 56.991 181.84 56.89 182.414 56.4524L182.549 57.6978C182.043 58.2027 181.098 58.674 179.849 58.674Z" fill="white"/>
<path d="M186.133 64.9683C185.154 64.9683 184.176 64.699 183.636 64.2951L184.344 61.9053C184.918 62.4102 185.761 62.7131 186.74 62.7131C188.123 62.7131 189.405 61.8043 190.249 59.6164L190.789 58.2364L184.817 42.652L183.298 41.1037V40.8681H188.225V41.1037L187.381 42.652L192.003 55.2407L196.525 42.652L195.681 41.1037L195.715 40.8681H200V41.1037L198.414 42.652L191.7 60.256C190.35 63.6892 188.461 64.9683 186.133 64.9683Z" fill="white"/>
</svg>
