<svg width="304" height="131" viewBox="0 0 304 131" fill="none" xmlns="http://www.w3.org/2000/svg">
<path d="M128.215 12.818L143.173 0V34.1814L128.215 49.1358V12.818Z" fill="#1A2C6B"/>
<path d="M147.447 17.0907L160.268 4.27268V36.3177L147.447 49.1358V17.0907Z" fill="#9FA0A3"/>
<path d="M164.542 19.227L175.227 8.54535V38.4541L164.542 49.1358V19.227Z" fill="#9FA0A3"/>
<path d="M58.6368 59.3389L58.6709 59.0655L60.5172 57.3906L64.6543 36.3007L59.0129 36.5741L56.0725 38.5566H55.8331L57.064 34.6941H75.4927L75.2534 38.5566H74.9798L72.9284 36.5741L67.3212 36.3007L63.1841 57.3906L64.415 59.0655L64.3808 59.3389H58.6368Z" fill="#1A2C6B"/>
<path d="M72.6917 59.3389L72.7259 59.0655L74.2303 57.5273L78.2648 36.745L77.3758 35.0701L77.4442 34.8309L81.2052 34.1814L79.0512 45.1878C80.4188 42.8293 82.7096 41.257 85.4448 41.257C88.7613 41.257 91.1546 43.6497 90.3682 47.6147L88.4536 57.5615L89.3767 59.0655L89.3083 59.3389H84.4875L84.5217 59.0655L85.9919 57.5615L87.9065 47.7173C88.4878 44.7776 86.9492 43.1711 84.7952 43.1711C82.0941 43.1711 79.6324 45.2562 78.5383 47.9907L76.6578 57.5273L77.581 59.0655L77.5126 59.3389H72.6917Z" fill="#1A2C6B"/>
<path d="M95.7263 51.7848C95.7263 55.3397 97.8119 57.6982 100.957 57.6982C103.761 57.6982 105.812 56.331 107.283 53.323L108.685 53.7674C107.248 57.4248 104.616 59.6807 100.65 59.6807C95.9656 59.6807 93.0936 56.1601 93.0936 51.819C93.0936 46.1449 96.8546 41.257 102.838 41.257C108.343 41.257 110.291 45.4955 109.197 50.0074H95.8631C95.7605 50.5885 95.7263 51.2038 95.7263 51.7848ZM96.1708 48.5718H106.872C107.18 46.1107 106.257 42.7268 102.838 42.7268C99.4531 42.7268 97.1281 45.3587 96.1708 48.5718Z" fill="#1A2C6B"/>
<path d="M185.791 126.334V126.163L186.753 125.117V112.149L185.791 111.081V110.931H189.381V111.081L188.42 112.149V125.33L194.446 125.159L195.984 123.92H196.134L195.856 126.334H185.791Z" fill="#1A2C6B"/>
<path d="M199.407 125.202L200.155 126.163V126.334H197.142V126.163L197.89 125.202V116.742L197.142 115.695V115.546L199.407 115.14V125.202ZM198.595 113.281C197.976 113.281 197.505 112.79 197.505 112.17C197.505 111.551 197.976 111.059 198.595 111.059C199.258 111.059 199.749 111.551 199.749 112.17C199.749 112.79 199.258 113.281 198.595 113.281Z" fill="#1A2C6B"/>
<path d="M201.88 126.334V126.163L202.606 125.202V116.742L201.858 115.695V115.546L204.124 115.14V117.533C204.765 116.037 206.068 115.033 207.671 115.033C209.402 115.033 210.62 115.952 210.962 117.639C211.752 115.93 213.099 115.033 214.616 115.033C216.753 115.033 218.099 116.422 218.099 118.75V125.202L218.804 126.163V126.334H215.876V126.163L216.56 125.202V118.964C216.56 116.934 215.535 116.229 214.295 116.229C212.757 116.229 211.432 117.426 211.111 119.498V125.202L211.795 126.163V126.334H208.889V126.163L209.594 125.202V118.964C209.594 116.934 208.547 116.229 207.329 116.229C205.79 116.229 204.465 117.468 204.124 119.498V125.202L204.829 126.163V126.334H201.88Z" fill="#1A2C6B"/>
<path d="M222.717 125.202L223.465 126.163V126.334H220.452V126.163L221.2 125.202V116.742L220.452 115.695V115.546L222.717 115.14V125.202ZM221.905 113.281C221.285 113.281 220.815 112.79 220.815 112.17C220.815 111.551 221.285 111.059 221.905 111.059C222.568 111.059 223.059 111.551 223.059 112.17C223.059 112.79 222.568 113.281 221.905 113.281Z" fill="#1A2C6B"/>
<path d="M229.1 126.548C227.519 126.548 226.386 125.672 226.386 123.685V116.229H224.313V115.439C226.173 115.311 226.856 114.883 227.049 112.64H227.903V115.247L230.852 115.118L230.917 116.229H227.903V123.749C227.903 125.01 228.609 125.48 229.463 125.48C229.891 125.48 230.361 125.416 230.724 125.138L230.81 125.928C230.489 126.249 229.891 126.548 229.1 126.548Z" fill="#1A2C6B"/>
<path d="M233.007 120.652C233.007 123.557 234.738 125.309 236.918 125.309C238.67 125.309 239.866 124.39 240.486 122.596L241.362 122.873C240.807 125.095 239.076 126.548 236.64 126.548C233.498 126.548 231.362 124.07 231.362 120.78C231.362 117.511 233.37 115.033 236.512 115.033C240.123 115.033 241.426 117.853 241.255 120.502H233.007V120.652ZM233.092 119.605H239.61C239.525 117.597 238.392 115.952 236.512 115.952C234.61 115.952 233.392 117.554 233.092 119.605Z" fill="#1A2C6B"/>
<path d="M247.672 126.548C244.702 126.548 242.693 124.134 242.693 120.78C242.693 117.447 244.937 115.033 247.971 115.033C249.317 115.033 250.578 115.61 251.39 116.742V112.213L250.642 111.166V111.017L252.907 110.611V125.202L253.655 126.163V126.334H251.39V124.07C250.728 125.651 249.211 126.548 247.672 126.548ZM247.928 125.394C249.681 125.394 251.155 124.027 251.39 121.955V119.007C250.984 117.127 249.745 115.973 248.057 115.973C245.856 115.973 244.36 118.045 244.36 120.78C244.36 123.407 245.749 125.394 247.928 125.394Z" fill="#1A2C6B"/>
<path d="M47.5932 130.487V130.077L49.901 127.565V112.132H29.6944V127.565L32.0023 130.077V130.487H23.3863V130.077L25.6941 127.565V96.4426L23.3863 93.879V93.5201H32.0023V93.879L29.6944 96.4426V109.517H49.901V96.4426L47.5932 93.879V93.5201H56.2092V93.879L53.9013 96.4426V127.565L56.2092 130.077V130.487H47.5932Z" fill="#1A2C6B"/>
<path d="M72.4039 131C64.9674 131 59.5824 125.155 59.5824 117.157C59.5824 109.209 64.9674 103.364 72.4039 103.364C79.8916 103.364 85.2766 109.209 85.2766 117.157C85.2766 125.155 79.8916 131 72.4039 131ZM72.4039 128.693C77.5325 128.693 81.3276 123.873 81.3276 117.157C81.3276 110.44 77.5325 105.672 72.4039 105.672C67.3266 105.672 63.5314 110.44 63.5314 117.157C63.5314 123.924 67.3266 128.693 72.4039 128.693Z" fill="#1A2C6B"/>
<path d="M89.0437 130.487V130.077L90.7874 127.77V107.466L88.9924 104.954V104.595L94.4287 103.621V109.363C95.9673 105.774 99.0957 103.364 102.942 103.364C107.096 103.364 110.02 105.569 110.84 109.62C112.738 105.518 115.969 103.364 119.61 103.364C124.739 103.364 127.97 106.697 127.97 112.286V127.77L129.662 130.077V130.487H122.636V130.077L124.277 127.77V112.798C124.277 107.928 121.815 106.236 118.841 106.236C115.148 106.236 111.968 109.107 111.199 114.08V127.77L112.84 130.077V130.487H105.865V130.077L107.558 127.77V112.798C107.558 107.928 105.045 106.236 102.122 106.236C98.429 106.236 95.2493 109.209 94.4287 114.08V127.77L96.1212 130.077V130.487H89.0437Z" fill="#1A2C6B"/>
<path d="M137.054 116.849C137.054 123.822 141.209 128.026 146.44 128.026C150.645 128.026 153.517 125.822 155.004 121.515L157.107 122.181C155.774 127.513 151.62 131 145.773 131C138.234 131 133.105 125.052 133.105 117.157C133.105 109.312 137.926 103.364 145.465 103.364C154.133 103.364 157.261 110.132 156.851 116.49H137.054V116.849ZM137.26 114.337H152.902C152.697 109.517 149.978 105.569 145.465 105.569C140.901 105.569 137.978 109.414 137.26 114.337Z" fill="#1A2C6B"/>
<path d="M170.404 131C164.609 131 161.07 128.077 159.839 124.591L162.404 121.668L162.814 121.72C163.583 125.822 166.353 128.744 170.456 128.744C173.84 128.744 176.302 126.642 176.302 123.617C176.302 121.053 174.661 119.464 171.738 118.643L167.122 117.362C163.583 116.387 160.814 114.593 160.814 110.491C160.814 106.338 164.609 103.364 169.789 103.364C174.251 103.364 177.482 105.415 178.969 108.594L176.661 111.26H176.251C175.533 107.722 172.917 105.569 169.738 105.569C166.66 105.569 164.404 107.466 164.404 109.927C164.404 112.081 165.84 113.311 168.455 114.029L173.02 115.259C177.02 116.387 179.995 118.387 179.995 123.053C179.995 127.667 175.994 131 170.404 131Z" fill="#1A2C6B"/>
<path d="M0 89.2473V88.8371L2.30786 86.4273V55.1L0 52.639V52.2801H14.719C22.8735 52.2801 27.5405 55.8691 27.5405 62.2269C27.5405 67.4053 24.1556 70.738 18.668 71.6097C21.5913 72.3275 24.0018 74.0195 25.489 78.7365L27.7969 86.4273L30.8228 88.8371V89.2473H24.2582L21.5913 79.8132C19.8989 74.0195 17.2833 72.2762 11.9496 72.2762H6.30816V86.4273L8.76987 88.8371V89.2473H0ZM14.3087 69.7126C19.7963 69.7126 23.335 66.9952 23.335 62.2269C23.335 57.4073 19.7963 54.8437 14.3087 54.8437H6.30816V69.7126H14.3087Z" fill="#1A2C6B"/>
<path d="M44.6603 89.76C37.2239 89.76 31.8389 83.915 31.8389 75.9165C31.8389 67.9693 37.2239 62.1243 44.6603 62.1243C52.1481 62.1243 57.5331 67.9693 57.5331 75.9165C57.5331 83.915 52.1481 89.76 44.6603 89.76ZM44.6603 87.4528C49.7889 87.4528 53.5841 82.6332 53.5841 75.9165C53.5841 69.1999 49.7889 64.4316 44.6603 64.4316C39.583 64.4316 35.7879 69.1999 35.7879 75.9165C35.7879 82.6844 39.583 87.4528 44.6603 87.4528Z" fill="#1A2C6B"/>
<path d="M62.2558 99.3479C60.7685 99.3479 59.2812 98.9377 58.4606 98.3224L59.5376 94.6821C60.4095 95.4512 61.6916 95.9127 63.1789 95.9127C65.2816 95.9127 67.2305 94.5283 68.5126 91.1956L69.3332 89.0935L60.2556 65.3545L57.9478 62.996V62.637H65.4355V62.996L64.1533 65.3545L71.1795 84.5302L78.0518 65.3545L76.7697 62.996L76.8209 62.637H83.3342V62.996L80.9238 65.3545L70.7179 92.1698C68.6665 97.3995 65.7945 99.3479 62.2558 99.3479Z" fill="#1A2C6B"/>
<path d="M92.3321 89.76C87.3574 89.76 84.0238 86.9913 84.0238 82.6844C84.0238 78.1725 87.3061 75.6089 93.1014 74.4809L101.41 72.8402V70.9431C101.41 66.585 98.7941 64.329 95.1528 64.329C91.3064 64.329 88.4344 66.7388 88.3318 71.1482L84.6392 70.174C85.2034 65.6108 89.1524 62.1243 95.2041 62.1243C101.205 62.1243 105.051 65.457 105.051 71.302V86.4786L106.846 88.8371V89.2473H101.358V83.915C99.6147 87.5553 96.435 89.76 92.3321 89.76ZM87.9215 82.3768C87.9215 85.2481 89.9729 87.0938 93.2552 87.0938C97.6145 87.0938 100.384 84.0175 101.358 80.1721V74.9424L94.2297 76.378C90.1268 77.3009 87.9215 79.1979 87.9215 82.3768Z" fill="#1A2C6B"/>
<path d="M115.865 86.5299L117.66 88.8371V89.2473H110.377V88.8371L112.172 86.5299V55.3564L110.377 52.8441V52.4852L115.865 51.511V86.5299Z" fill="#1A2C6B"/>
<path d="M126.208 88.8627V88.4526L128.516 85.9402V54.818L126.208 52.2544V51.8955H139.593C150.056 51.8955 157.697 59.6376 157.697 70.3535C157.697 81.1206 150.056 88.8627 139.593 88.8627H126.208ZM139.439 86.2991C147.543 86.2991 153.492 79.2748 153.492 70.3535C153.492 61.4834 147.594 54.4591 139.439 54.4591H132.516V86.2991H139.439Z" fill="#1A2C6B"/>
<path d="M163.422 98.9633C161.934 98.9633 160.447 98.5532 159.626 97.9379L160.703 94.2976C161.575 95.0667 162.857 95.5281 164.345 95.5281C166.447 95.5281 168.396 94.1438 169.678 90.8111L170.499 88.7089L161.421 64.9699L159.114 62.6114V62.2525H166.601V62.6114L165.319 64.9699L172.345 84.1457L179.218 64.9699L177.935 62.6114L177.987 62.2525H184.5V62.6114L182.09 64.9699L171.884 91.7852C169.832 97.015 166.96 98.9633 163.422 98.9633Z" fill="#1A2C6B"/>
<path d="M186.655 88.8627V88.4526L188.45 86.1453V65.8416L186.655 63.3292V62.9703L192.092 61.9961V67.6873C193.681 64.0983 196.912 61.7398 200.861 61.7398C206.093 61.7398 209.785 64.9699 209.785 70.7637V86.1453L211.58 88.4526V88.8627H204.349V88.4526L206.144 86.1453V71.2251C206.144 66.8157 203.631 64.611 200.092 64.611C196.297 64.611 193.066 67.5335 192.092 72.2506V86.1453L193.887 88.4526V88.8627H186.655Z" fill="#1A2C6B"/>
<path d="M223.147 89.3755C218.173 89.3755 214.839 86.6068 214.839 82.2999C214.839 77.788 218.121 75.2243 223.917 74.0964L232.225 72.4557V70.5586C232.225 66.2005 229.61 63.9445 225.968 63.9445C222.122 63.9445 219.25 66.3543 219.147 70.7637L215.455 69.7895C216.019 65.2263 219.968 61.7398 226.02 61.7398C232.02 61.7398 235.866 65.0725 235.866 70.9175V86.094L237.661 88.4526V88.8627H232.174V83.5304C230.43 87.1708 227.25 89.3755 223.147 89.3755ZM218.737 81.9923C218.737 84.8635 220.788 86.7093 224.071 86.7093C228.43 86.7093 231.199 83.633 232.174 79.7876V74.5578L225.045 75.9934C220.942 76.9163 218.737 78.8134 218.737 81.9923Z" fill="#1A2C6B"/>
<path d="M250.988 89.3755C245.193 89.3755 241.654 86.4529 240.424 82.9664L242.988 80.0439L243.398 80.0952C244.167 84.197 246.937 87.1195 251.04 87.1195C254.425 87.1195 256.886 85.0173 256.886 81.9923C256.886 79.4287 255.245 77.8392 252.322 77.0189L247.706 75.7371C244.167 74.7629 241.398 72.9684 241.398 68.8666C241.398 64.7136 245.193 61.7398 250.373 61.7398C254.835 61.7398 258.066 63.7907 259.553 66.9695L257.245 69.6357H256.835C256.117 66.0979 253.501 63.9445 250.322 63.9445C247.245 63.9445 244.988 65.8416 244.988 68.3026C244.988 70.456 246.424 71.6866 249.04 72.4044L253.604 73.6349C257.604 74.7629 260.579 76.7625 260.579 81.4283C260.579 86.0428 256.579 89.3755 250.988 89.3755Z" fill="#1A2C6B"/>
<path d="M273.371 89.3755C269.576 89.3755 266.858 87.2733 266.858 82.505V64.611H261.883V62.714C266.345 62.4063 267.986 61.3809 268.448 55.9973H270.499V62.2525L277.577 61.9449L277.73 64.611H270.499V82.6588C270.499 85.6839 272.192 86.8119 274.243 86.8119C275.269 86.8119 276.397 86.658 277.269 85.9915L277.474 87.8886C276.705 88.6576 275.269 89.3755 273.371 89.3755Z" fill="#1A2C6B"/>
<path d="M282.921 98.9633C281.434 98.9633 279.947 98.5532 279.126 97.9379L280.203 94.2976C281.075 95.0667 282.357 95.5281 283.845 95.5281C285.947 95.5281 287.896 94.1438 289.178 90.8111L289.999 88.7089L280.921 64.9699L278.613 62.6114V62.2525H286.101V62.6114L284.819 64.9699L291.845 84.1457L298.718 64.9699L297.435 62.6114L297.487 62.2525H304V62.6114L301.59 64.9699L291.384 91.7852C289.332 97.015 286.46 98.9633 282.921 98.9633Z" fill="#1A2C6B"/>
</svg>
